<?xml version="1.0" encoding="utf-8"?>
<!-- Generator: Adobe Illustrator 16.0.0, SVG Export Plug-In . SVG Version: 6.00 Build 0)  -->
<!DOCTYPE svg PUBLIC "-//W3C//DTD SVG 1.1//EN" "http://www.w3.org/Graphics/SVG/1.1/DTD/svg11.dtd">
<svg version="1.1" xmlns="http://www.w3.org/2000/svg" xmlns:xlink="http://www.w3.org/1999/xlink" x="0px" y="0px" width="40px"
	 height="40px" viewBox="0 0 40 40" enable-background="new 0 0 40 40" xml:space="preserve">
<g id="Rounded_Rectangle_1_copy_3_1_" enable-background="new    ">
	<g id="Rounded_Rectangle_1_copy_3">
		<g>
			<path fill="#7FBA57" d="M37,0H3C1.343,0,0,1.343,0,3v34c0,1.657,1.343,3,3,3h34c1.656,0,3-1.343,3-3V3C40,1.343,38.656,0,37,0z"
				/>
		</g>
	</g>
</g>
<g id="Shape_6_1_" enable-background="new    ">
	<g id="Shape_6">
		<g>
			<path fill="#5F9B36" d="M32,12H8v15l15,13h14c1.656,0,3-1.343,3-3V23.556L32,12z"/>
		</g>
	</g>
</g>
<g id="Shape_2_1_" enable-background="new    ">
	<g id="Shape_2">
		<g>
			<path fill-rule="evenodd" clip-rule="evenodd" fill="#FFFFFF" d="M9.046,13.644c1.076,0.645,8.844,4.919,8.844,4.919
				s0.876,0.766,1.913,0.807c1.036,0.04,1.553-0.403,2.151-0.727c0.598-0.322,9.242-5.161,9.242-5.161s0.837-0.604,0.718-1.209
				C31.833,11.869,30,12.03,30,12.03L8.727,12.111c0,0-0.637-0.202-0.637,0.322S7.97,12.998,9.046,13.644z M31.992,25.336v-8.87
				c0,0,0-0.403-0.398-0.242s-9.8,5.322-9.8,5.322s-0.996,0.646-1.594,0.646c-0.597,0-0.757-0.04-1.752-0.484
				c-0.996-0.443-10.04-5.483-10.04-5.483s-0.398-0.322-0.398,0s0,9.354,0,9.354v0.887c0,0-0.119,0.848,0.478,1.21
				c0.598,0.363,1.354,0.322,1.354,0.322h20.636c0,0,0.797-0.04,1.195-0.564C32.072,26.909,31.992,25.336,31.992,25.336z"/>
		</g>
	</g>
</g>
</svg>
