<?xml version="1.0" encoding="utf-8"?>
<!-- Generator: Adobe Illustrator 16.0.0, SVG Export Plug-In . SVG Version: 6.00 Build 0)  -->
<!DOCTYPE svg PUBLIC "-//W3C//DTD SVG 1.1//EN" "http://www.w3.org/Graphics/SVG/1.1/DTD/svg11.dtd">
<svg version="1.1" xmlns="http://www.w3.org/2000/svg" xmlns:xlink="http://www.w3.org/1999/xlink" x="0px" y="0px" width="40px"
	 height="40px" viewBox="0 0 40 40" enable-background="new 0 0 40 40" xml:space="preserve">
<g id="Rounded_Rectangle_1_copy_3_1_" enable-background="new    ">
	<g id="Rounded_Rectangle_1_copy_3">
		<g>
			<path fill="#57B9BA" d="M37,0H3C1.343,0,0,1.343,0,3v34c0,1.657,1.343,3,3,3h34c1.656,0,3-1.343,3-3V3C40,1.343,38.656,0,37,0z"
				/>
		</g>
	</g>
</g>
<g id="Shape_6_1_" enable-background="new    ">
	<g id="Shape_6">
		<g>
			<path fill="#399697" d="M32,11L8,12v16l13,12h16c1.656,0,3-1.343,3-3V21.556L32,11z"/>
		</g>
	</g>
</g>
<g id="Shape_7_1_" enable-background="new    ">
	<g id="Shape_7">
		<g>
			<path fill="#FFFFFF" d="M31.996,12.656c-0.059-0.792-0.554-1.413-1.303-1.603c-0.195-0.05-0.408-0.052-0.611-0.052
				C23.354,11,16.626,11,9.898,11c-0.088,0-0.177-0.005-0.265,0.003c-0.613,0.054-1.087,0.316-1.386,0.856
				c-0.187,0.337-0.249,0.694-0.248,1.073C8.002,17.571,8,22.21,8.001,26.849c0,0.086-0.007,0.172,0.002,0.257
				c0.048,0.447,0.163,0.856,0.496,1.207c0.424,0.447,0.946,0.614,1.54,0.617c1.442,0.008,2.885,0.002,4.328,0.004
				c0.155,0,0.309,0.018,0.496,0.029v2.998c0.029,0.014,0.057,0.026,0.086,0.04c0.104-0.096,0.212-0.188,0.313-0.287
				c0.84-0.822,1.688-1.639,2.514-2.475c0.224-0.227,0.45-0.314,0.771-0.313c3.71,0.01,7.419,0.007,11.13,0.007
				c0.117,0,0.236,0.007,0.353-0.002c0.636-0.051,1.208-0.216,1.604-0.761c0.278-0.382,0.365-0.805,0.366-1.255
				c0.001-4.681,0-9.362,0-14.044C31.998,12.8,32.001,12.728,31.996,12.656z M22.885,15.458c0.879,0.033,1.459,0.573,1.521,1.477
				c0.053,0.749-0.693,1.443-1.487,1.447c-0.888,0.004-1.49-0.586-1.522-1.438C21.368,16.194,22.045,15.426,22.885,15.458z
				 M17.075,15.46c0.895-0.037,1.534,0.76,1.527,1.503c-0.007,0.776-0.747,1.477-1.504,1.419c-0.866,0.013-1.511-0.615-1.503-1.459
				C15.603,16.116,16.181,15.497,17.075,15.46z M25.584,21.906c-1.303,1.076-2.765,1.829-4.478,2.065
				c-0.13,0.019-0.259,0.06-0.39,0.065c-0.235,0.011-0.471,0.003-0.706,0.003c-2.003-0.012-3.759-0.68-5.302-1.906
				c-0.08-0.063-0.164-0.12-0.243-0.185c-0.422-0.34-0.531-0.949-0.243-1.35c0.334-0.466,0.883-0.575,1.401-0.276
				c0.075,0.043,0.148,0.094,0.212,0.151c0.986,0.878,2.162,1.371,3.468,1.561c0.64,0.092,1.298,0.068,1.93-0.085
				c1.066-0.261,2.053-0.696,2.874-1.432c0.199-0.178,0.417-0.318,0.691-0.35c0.456-0.053,0.854,0.162,1.048,0.559
				C26.029,21.097,25.922,21.626,25.584,21.906z"/>
		</g>
	</g>
</g>
</svg>
