<?xml version="1.0" encoding="UTF-8" standalone="no"?>
<svg
   xmlns:dc="http://purl.org/dc/elements/1.1/"
   xmlns:cc="http://creativecommons.org/ns#"
   xmlns:rdf="http://www.w3.org/1999/02/22-rdf-syntax-ns#"
   xmlns:svg="http://www.w3.org/2000/svg"
   xmlns="http://www.w3.org/2000/svg"
   xmlns:sodipodi="http://sodipodi.sourceforge.net/DTD/sodipodi-0.dtd"
   xmlns:inkscape="http://www.inkscape.org/namespaces/inkscape"
   enable-background="new 0 0 512 512"
   height="256"
   id="Layer_1"
   version="1.1"
   viewBox="0 0 256 256"
   width="256"
   xml:space="preserve"
   sodipodi:docname="diaspora.svg"
   inkscape:version="0.92.2 2405546, 2018-03-11"><metadata
     id="metadata11"><rdf:RDF><cc:Work
         rdf:about=""><dc:format>image/svg+xml</dc:format><dc:type
           rdf:resource="http://purl.org/dc/dcmitype/StillImage" /><dc:title></dc:title><cc:license
           rdf:resource="http://creativecommons.org/publicdomain/zero/1.0/" /></cc:Work><cc:License
         rdf:about="http://creativecommons.org/publicdomain/zero/1.0/"><cc:permits
           rdf:resource="http://creativecommons.org/ns#Reproduction" /><cc:permits
           rdf:resource="http://creativecommons.org/ns#Distribution" /><cc:permits
           rdf:resource="http://creativecommons.org/ns#DerivativeWorks" /></cc:License></rdf:RDF></metadata><defs
     id="defs9" /><sodipodi:namedview
     pagecolor="#ffffff"
     bordercolor="#666666"
     borderopacity="1"
     objecttolerance="10"
     gridtolerance="10"
     guidetolerance="10"
     inkscape:pageopacity="0"
     inkscape:pageshadow="2"
     inkscape:window-width="1920"
     inkscape:window-height="1016"
     id="namedview7"
     showgrid="false"
     inkscape:zoom="1.84375"
     inkscape:cx="68.380226"
     inkscape:cy="128.97271"
     inkscape:window-x="0"
     inkscape:window-y="27"
     inkscape:window-maximized="1"
     inkscape:current-layer="Layer_1" /><g
     id="email"
     style="fill:#000000;fill-opacity:1;fill-rule:evenodd;stroke:none;stroke-width:1"
     transform="translate(-54.271187,-256)"><rect
       rx="40"
       height="256"
       width="256"
       y="256"
       x="54.271187"
       id="bg"
       style="fill:#000000;fill-opacity:1" /></g><g
     inkscape:groupmode="layer"
     id="layer1"
     inkscape:label="Layer 1"
     transform="translate(0,-256)"><path
       style="clip-rule:evenodd;fill:#ffffff;fill-opacity:1;fill-rule:evenodd;stroke-width:0.5"
       d="m 109.64355,360.70996 c -0.14975,2.87905 -5.23241,-1.04404 -7.48878,-1.06958 -18.742347,-6.1272 -37.484697,-12.25439 -56.227047,-18.38159 -3.77506,11.61328 -7.55013,23.22656 -11.32519,34.83985 21.23794,6.89261 42.47598,13.78494 63.713865,20.67773 -13.128695,18.09455 -26.257845,36.18877 -39.386715,54.2832 9.894855,7.1722 19.78971,14.3444 29.68457,21.5166 13.127587,-18.09897 26.255267,-36.19787 39.382807,-54.29687 13.12871,18.09845 26.25785,36.19659 39.38673,54.29492 9.84374,-7.1709 19.6875,-14.3418 29.53125,-21.51269 -13.12959,-18.09536 -26.25897,-36.19087 -39.38868,-54.28614 21.29063,-6.89146 42.58069,-13.78464 63.8711,-20.67675 -3.77669,-11.61329 -7.55339,-23.22657 -11.33008,-34.83985 -21.28913,6.94283 -42.57773,13.88727 -63.86719,20.8291 0,-22.35351 0,-44.70703 0,-67.06054 -12.18555,0 -24.3711,0 -36.55664,0 0,21.8942 0,43.78841 0,65.68261 z"
       id="path2"
       inkscape:connector-curvature="0" /></g><g
     inkscape:groupmode="layer"
     id="layer2"
     inkscape:label="Layer 2"
     transform="translate(0,-256)" /></svg>