<?xml version="1.0" encoding="utf-8"?>
<!-- Generator: Adobe Illustrator 16.0.0, SVG Export Plug-In . SVG Version: 6.00 Build 0)  -->
<!DOCTYPE svg PUBLIC "-//W3C//DTD SVG 1.0//EN" "http://www.w3.org/TR/2001/REC-SVG-20010904/DTD/svg10.dtd">
<svg version="1.0"
	 id="telegram" sodipodi:docname="twitter.svg" inkscape:version="0.91 r13725" xmlns:dc="http://purl.org/dc/elements/1.1/" xmlns:cc="http://creativecommons.org/ns#" xmlns:rdf="http://www.w3.org/1999/02/22-rdf-syntax-ns#" xmlns:svg="http://www.w3.org/2000/svg" xmlns:sodipodi="http://sodipodi.sourceforge.net/DTD/sodipodi-0.dtd" xmlns:inkscape="http://www.inkscape.org/namespaces/inkscape"
	 xmlns="http://www.w3.org/2000/svg" xmlns:xlink="http://www.w3.org/1999/xlink" x="0px" y="0px" width="256px" height="256px"
	 viewBox="0 0 256 256" enable-background="new 0 0 256 256" xml:space="preserve">
<g id="background">
	<defs>
		<path id="bg" d="M40.503,0h176c22.16,0,40,17.84,40,40v176c0,22.16-17.84,40-40,40h-176c-22.16,0-40-17.84-40-40V40
			C0.503,17.839,18.343,0,40.503,0z"/>
	</defs>
	<clipPath id="bg_1_">
		<use xlink:href="#bg"  overflow="visible"/>
	</clipPath>
	
		<linearGradient id="SVGID_1_" gradientUnits="userSpaceOnUse" x1="-291.915" y1="425.2764" x2="-292.0857" y2="424.8782" gradientTransform="matrix(595.2803 0 0 -595.2803 173949.9844 253122.25)">
		<stop  offset="0" style="stop-color:#37AEE2"/>
		<stop  offset="1" style="stop-color:#1E96C8"/>
	</linearGradient>
	<circle clip-path="url(#bg_1_)" fill="url(#SVGID_1_)" cx="119.114" cy="102.767" r="203.308"/>
</g>
<g id="logo">
	<path fill="#C8DAEA" d="M107.402,190.777c-5.074,0-4.212-1.916-5.962-6.747l-14.923-49.111l114.866-68.145"/>
	<path fill="#A9C9DD" d="M107.402,190.777c3.916,0,5.646-1.79,7.832-3.915l20.885-20.308l-26.051-15.71"/>
	
		<linearGradient id="SVGID_2_" gradientUnits="userSpaceOnUse" x1="-291.8975" y1="425.082" x2="-291.7966" y2="424.8896" gradientTransform="matrix(323.6656 0 0 -271.4716 94624.2031 115520.6719)">
		<stop  offset="0" style="stop-color:#EFF7FC"/>
		<stop  offset="1" style="stop-color:#FFFFFF"/>
	</linearGradient>
	<path fill="url(#SVGID_2_)" d="M110.065,150.849l63.124,46.638c7.203,3.974,12.402,1.916,14.197-6.688l25.694-121.083
		c2.631-10.546-4.021-15.33-10.911-12.202L51.29,115.691c-10.299,4.132-10.239,9.876-1.877,12.437l38.719,12.085l89.639-56.552
		c4.231-2.566,8.115-1.187,4.928,1.643"/>
</g>
</svg>
