<svg
  xmlns:dc="http://purl.org/dc/elements/1.1/"
  xmlns:cc="http://creativecommons.org/ns#"
  xmlns:rdf="http://www.w3.org/1999/02/22-rdf-syntax-ns#"
  xmlns:svg="http://www.w3.org/2000/svg"
  xmlns="http://www.w3.org/2000/svg"
  version="1.1"
  width="256px"
  height="256px"
  viewBox="0 0 42.899997 43">
<style
   type="text/css"
   id="style2">
	.st0{fill:none;}
</style>
<path
  d="M 42.899996,8.0999997 V 34.9 c 0,2.2 -0.8,4.1 -2.4,5.7 -1.6,1.6 -3.5,2.4 -5.7,2.4 H 8.1000002 C 5.9000002,43 4,42.2 2.4,40.6 0.8,39 0,37.1 0,34.9 V 8.0999997 C 0,5.8999997 0.8,4 2.4,2.4 4,0.8 5.9000002,0 8.1000002,0 H 34.799996 c 2.2,0 4.1,0.8 5.7,2.4 1.6,1.6 2.4,3.4999997 2.4,5.6999997 z M 29.3,25.5 c 0,-1.5 -0.3,-2.8 -0.8,-4.1 -0.8,0.5 -1.6,0.8 -2.4,0.9 0.4,0.9 0.6,2 0.6,3.2 0,2.2 -0.7,4 -2.1,5.5 -1.4,1.5 -3.2,2.3 -5.4,2.3 -2.2,0 -4,-0.8 -5.4,-2.3 -1.4,-1.5 -2.2,-3.4 -2.2,-5.5 0,-2.1 0.7,-4 2.2,-5.6 1.5,-1.6 3.2,-2.4 5.4,-2.4 1,0 1.9,0.2 2.7,0.5 0.1,-0.8 0.3,-1.6 0.8,-2.4 -1.1,-0.4 -2.3,-0.6 -3.5,-0.6 -2.9,0 -5.3,1 -7.2,3 -1.9,2 -2.8999998,4.5 -2.8999998,7.4 0,2.9 0.9999998,5.3 2.8999998,7.3 1.9,2 4.3,3 7.2,3 2.9,0 5.3,-1 7.2,-3 1.9,-2 2.9,-4.3 2.9,-7.2 z m -5,-9.9 c 0,0.4 0.1,1.1 0.1,2 0,1.2 0,2.3 -0.1,3.4 -0.1,1.1 -0.3,2.3 -0.6,3.7 -0.3,1.3 -0.7,2.6 -1.1,3.6 -0.5,1.1 -1.1,2.1 -1.9,3 -0.8,0.9 -1.7,1.6 -2.8,2 0.4,0.1 0.8,0.1 1.2,0.1 h 0.3 c 4.1,-2.6 6.1,-6.4 6.1,-11.5 -0.1,-2.2 -0.4,-4.3 -1.2,-6.3 z m 0,0 C 24.2,14.1 23.8,12.5 23.1,10.8 22.4,9.0999997 21.4,7.8999997 20.4,7.1999997 22.1,10.1 23.4,12.9 24.3,15.6 Z m 9.399996,-2.9 c 0,-1.9 -0.5,-3.5000003 -1.4,-4.9000003 -0.8,1.6 -1.9,2.6000003 -3.499996,3.0000003 -1.3,0.4 -2.3,0.9 -3,1.5 -0.7,0.6 -1.1,1.6 -1.1,2.8 0,0.7 0.2,1.5 0.7,2.1 1.4,-0.3 2.7,-0.9 3.9,-1.9 1.199996,-0.9 2.099996,-2 2.699996,-3.2 -0.1,1 -0.8,2 -2.099996,3.1 -1.3,1.1 -2.6,2 -3.9,2.7 1,1 2,1.5 3.1,1.5 0.9,0 1.799996,-0.3 2.499996,-1 0.7,-0.7 1.3,-1.5 1.7,-2.5 0.2,-0.7 0.4,-1.8 0.4,-3.2 z" />
</svg>