<svg version="1.1" id="Layer_1" xmlns="http://www.w3.org/2000/svg" xmlns:xlink="http://www.w3.org/1999/xlink" x="0px" y="0px"
	width="256" height="256" viewBox="0 0 54 54" style="enable-background:new 0 0 54 54;" xml:space="preserve">
<style type="text/css">
	.st0{fill:none;}
</style>
<g>
	<rect x="-0.2" y="0.1" class="st0" width="53.8" height="53.4"/>
	<path d="M48.1,12.9v26.8c0,2.2-0.8,4.1-2.4,5.7c-1.6,1.6-3.5,2.4-5.7,2.4H13.3c-2.2,0-4.1-0.8-5.7-2.4c-1.6-1.6-2.4-3.5-2.4-5.7
		V12.9c0-2.2,0.8-4.1,2.4-5.7c1.6-1.6,3.5-2.4,5.7-2.4H40c2.2,0,4.1,0.8,5.7,2.4C47.3,8.8,48.1,10.7,48.1,12.9z M34.5,30.3
		c0-1.5-0.3-2.8-0.8-4.1c-0.8,0.5-1.6,0.8-2.4,0.9c0.4,0.9,0.6,2,0.6,3.2c0,2.2-0.7,4-2.1,5.5c-1.4,1.5-3.2,2.3-5.4,2.3
		s-4-0.8-5.4-2.3c-1.4-1.5-2.2-3.4-2.2-5.5c0-2.1,0.7-4,2.2-5.6c1.5-1.6,3.2-2.4,5.4-2.4c1,0,1.9,0.2,2.7,0.5
		c0.1-0.8,0.3-1.6,0.8-2.4c-1.1-0.4-2.3-0.6-3.5-0.6c-2.9,0-5.3,1-7.2,3c-1.9,2-2.9,4.5-2.9,7.4c0,2.9,1,5.3,2.9,7.3s4.3,3,7.2,3
		s5.3-1,7.2-3S34.5,33.2,34.5,30.3z M29.5,20.4c0,0.4,0.1,1.1,0.1,2c0,1.2,0,2.3-0.1,3.4c-0.1,1.1-0.3,2.3-0.6,3.7
		c-0.3,1.3-0.7,2.6-1.1,3.6c-0.5,1.1-1.1,2.1-1.9,3c-0.8,0.9-1.7,1.6-2.8,2c0.4,0.1,0.8,0.1,1.2,0.1h0.3c4.1-2.6,6.1-6.4,6.1-11.5
		C30.6,24.5,30.3,22.4,29.5,20.4z M29.5,20.4c-0.1-1.5-0.5-3.1-1.2-4.8c-0.7-1.7-1.7-2.9-2.7-3.6C27.3,14.9,28.6,17.7,29.5,20.4z
		 M38.9,17.5c0-1.9-0.5-3.5-1.4-4.9c-0.8,1.6-1.9,2.6-3.5,3c-1.3,0.4-2.3,0.9-3,1.5c-0.7,0.6-1.1,1.6-1.1,2.8c0,0.7,0.2,1.5,0.7,2.1
		c1.4-0.3,2.7-0.9,3.9-1.9c1.2-0.9,2.1-2,2.7-3.2c-0.1,1-0.8,2-2.1,3.1s-2.6,2-3.9,2.7c1,1,2,1.5,3.1,1.5c0.9,0,1.8-0.3,2.5-1
		c0.7-0.7,1.3-1.5,1.7-2.5C38.7,20,38.9,18.9,38.9,17.5z"/>
</g>
</svg>