<?xml version="1.0" ?><svg height="512" id="Layer_1" version="1.1" viewBox="0 0 512 512" width="512" xml:space="preserve" xmlns="http://www.w3.org/2000/svg" xmlns:cc="http://creativecommons.org/ns#" xmlns:dc="http://purl.org/dc/elements/1.1/" xmlns:inkscape="http://www.inkscape.org/namespaces/inkscape" xmlns:rdf="http://www.w3.org/1999/02/22-rdf-syntax-ns#" xmlns:sodipodi="http://sodipodi.sourceforge.net/DTD/sodipodi-0.dtd" xmlns:svg="http://www.w3.org/2000/svg"><defs id="defs12"/><g id="g5124"><rect height="512" id="rect2987" rx="64" ry="64" style="fill:#65bc54;fill-opacity:1;fill-rule:nonzero;stroke:none" width="512" x="0" y="0"/><path d="m 456,250.85266 c 0,107.60904 -87.9126,194.8442 -196.36397,194.8442 -34.43066,0 -66.77677,-8.80168 -94.9199,-24.24162 L 56.000005,456 91.437745,351.45584 C 73.559715,322.08872 63.265025,287.65523 63.265025,250.85124 63.265025,143.23516 151.18049,56 259.63463,56 368.0874,56.001 456,143.23657 456,250.85266 z M 259.63603,87.03196 c -91.04092,0 -165.093965,73.49248 -165.093965,163.8207 0,35.84056 11.683465,69.04162 31.446055,96.04529 l -20.62177,60.83151 63.44285,-20.16403 c 26.07126,17.11323 57.29196,27.09805 90.82543,27.09805 91.02965,0 165.09396,-73.48543 165.09396,-163.81224 0,-90.3268 -74.06292,-163.81928 -165.09256,-163.81928 z m 99.15526,208.68972 c -1.20989,-1.98879 -4.4185,-3.18602 -9.22424,-5.5706 -4.81705,-2.3874 -28.48964,-13.94551 -32.894,-15.53429 -4.41845,-1.59301 -7.63122,-2.39304 -10.83838,2.38458 -3.20432,4.79028 -12.42856,15.53429 -15.24273,18.72031 -2.80853,3.19166 -5.60863,3.59026 -10.42569,1.20003 -4.80578,-2.38739 -20.32177,-7.4284 -38.70826,-23.70215 -14.30749,-12.65815 -23.96978,-28.2854 -26.77831,-33.07147 -2.80854,-4.77903 -0.2972,-7.3622 2.10993,-9.73975 2.16626,-2.14796 4.81423,-5.58186 7.22416,-8.36364 2.40712,-2.79447 3.20715,-4.78184 4.80861,-7.96926 1.61272,-3.18884 0.80002,-5.97485 -0.3986,-8.3707 -1.20286,-2.38317 -10.83274,-25.88955 -14.84415,-35.449 -4.01138,-9.55947 -8.0115,-7.96646 -10.82568,-7.96646 -2.80996,0 -6.01569,-0.40002 -9.22987,-0.40002 -3.20997,0 -8.42703,1.19864 -12.83562,5.97344 -4.41001,4.78325 -16.84138,16.33291 -16.84138,39.83365 0,23.50497 17.24279,46.21133 19.65273,49.39594 2.40431,3.17756 33.28838,52.9721 82.21811,72.10228 48.94802,19.11328 48.94802,12.74407 57.77365,11.937 8.81437,-0.78735 28.46992,-11.54403 32.48832,-22.70072 4.0086,-11.14964 4.0086,-20.71896 2.8114,-22.70917 z" id="WhatsApp_2_" style="fill:#ffffff;fill-rule:evenodd"/></g></svg>